<svg width="1024" height="1024" viewBox="0 0 1024 1024" fill="none" xmlns="http://www.w3.org/2000/svg">
<path fill-rule="evenodd" clip-rule="evenodd" d="M758.272 246C807.226 246 852.185 310.551 847.689 520.21C835.7 672.548 797.453 733.5 746.5 733.5C701.735 733.5 669.473 700.446 632.069 656.683C602.179 691.295 559.229 713 511.5 713C464.038 713 421.302 691.538 391.434 657.264C354.241 700.738 322.067 733.5 277.5 733.5C226.547 733.5 188.299 672.548 176.311 520.21C171.815 310.551 216.773 246 265.728 246C318.699 248.299 352.034 287.748 414.576 399.762C441.698 378.543 475.218 366 511.5 366C548.092 366 581.875 378.757 609.118 400.307C671.857 287.875 705.214 248.302 758.272 246Z" fill="url(#paint0_linear_32_222)"/>
<path d="M669 512C651 605 598.485 690 511.5 690C424.515 690 373 608 354 512C335 416 398.5 334 511.5 334C624.5 334 687 419 669 512Z" fill="url(#paint1_linear_32_222)"/>
<path fill-rule="evenodd" clip-rule="evenodd" d="M758.501 246C807.501 246 852.501 308.501 848.001 511.5C836.001 659 812.001 718.5 761.001 718.5C688.001 718.5 596.5 570.5 512 515C427.5 570.5 336 718.499 263.001 718.5C212.001 718.5 188 659 176.001 511.5C171.501 308.5 216.501 246 265.501 246C318.946 248.243 352.422 287.036 416 397.5C450.744 451.398 471.267 475.537 512 494.499C552.733 475.537 573.256 451.398 608.001 397.5C671.579 287.036 705.055 248.243 758.501 246Z" fill="url(#paint2_linear_32_222)"/>
<defs>
<linearGradient id="paint0_linear_32_222" x1="512" y1="246" x2="512" y2="734" gradientUnits="userSpaceOnUse">
<stop stop-color="#FFFF00"/>
<stop offset="1" stop-color="#0033FF"/>
</linearGradient>
<linearGradient id="paint1_linear_32_222" x1="511" y1="266.5" x2="511" y2="746.5" gradientUnits="userSpaceOnUse">
<stop stop-color="#FFFF00"/>
<stop offset="1" stop-color="#1C3ACD"/>
</linearGradient>
<linearGradient id="paint2_linear_32_222" x1="848" y1="719" x2="176" y2="719" gradientUnits="userSpaceOnUse">
<stop stop-color="#00A2FF"/>
<stop offset="1" stop-color="#0020FF"/>
</linearGradient>
</defs>
</svg>
